<svg width="44" height="44" viewBox="0 0 44 44" fill="none" xmlns="http://www.w3.org/2000/svg">
<path d="M31.625 12.375C31.625 14.9277 30.6109 17.3759 28.8059 19.1809C27.0009 20.9859 24.5527 22 22 22C19.4473 22 16.9991 20.9859 15.1941 19.1809C13.3891 17.3759 12.375 14.9277 12.375 12.375C12.375 9.82229 13.3891 7.37413 15.1941 5.5691C16.9991 3.76406 19.4473 2.75 22 2.75C24.5527 2.75 27.0009 3.76406 28.8059 5.5691C30.6109 7.37413 31.625 9.82229 31.625 12.375ZM28.875 12.375C28.875 10.5516 28.1507 8.80295 26.8614 7.51364C25.572 6.22433 23.8234 5.5 22 5.5C20.1766 5.5 18.428 6.22433 17.1386 7.51364C15.8493 8.80295 15.125 10.5516 15.125 12.375C15.125 14.1984 15.8493 15.947 17.1386 17.2364C18.428 18.5257 20.1766 19.25 22 19.25C23.8234 19.25 25.572 18.5257 26.8614 17.2364C28.1507 15.947 28.875 14.1984 28.875 12.375ZM10.3125 24.75C9.03615 24.75 7.81207 25.257 6.90955 26.1595C6.00703 27.0621 5.5 28.2861 5.5 29.5625V30.25C5.5 33.5404 7.59413 36.3234 10.5669 38.2154C13.5561 40.1184 17.6027 41.25 22 41.25C23.6452 41.251 25.2863 41.0879 26.8991 40.7632L24.6345 38.346C23.7829 38.4468 22.9048 38.4982 22 38.5C18.0441 38.5 14.5282 37.477 12.0436 35.8958C9.54112 34.3063 8.25 32.274 8.25 30.25V29.5625C8.25 29.0155 8.4673 28.4909 8.85409 28.1041C9.24089 27.7173 9.76549 27.5 10.3125 27.5H19.0988C19.3215 26.5251 19.7354 25.5888 20.3404 24.75H10.3125ZM30.7862 25.5365L31.6209 26.5884L32.4569 25.5365C32.9451 24.9151 33.5582 24.4031 34.2565 24.0334C34.9549 23.6637 35.7231 23.4445 36.5114 23.3901C37.2997 23.3357 38.0907 23.4472 38.8332 23.7174C39.5758 23.9877 40.2534 24.4106 40.8224 24.959C43.1392 27.181 43.2355 30.9031 41.0382 33.2461L32.6755 42.1657C32.5408 42.3108 32.3776 42.4264 32.1961 42.5055C32.0146 42.5846 31.8188 42.6254 31.6209 42.6254C31.4229 42.6254 31.2271 42.5846 31.0456 42.5055C30.8642 42.4264 30.701 42.3108 30.5662 42.1657L22.2076 33.2393C20.0159 30.8976 20.1121 27.1851 22.4221 24.9659C22.9901 24.4166 23.667 23.9926 24.4092 23.7215C25.1513 23.4504 25.9421 23.338 26.7304 23.3918C27.5187 23.4456 28.2869 23.6643 28.9853 24.0338C29.6837 24.4032 30.2982 24.9151 30.7862 25.5365Z" fill="#166549"/>
</svg>
