<svg width="44" height="44" viewBox="0 0 44 44" fill="none" xmlns="http://www.w3.org/2000/svg">
<path fill-rule="evenodd" clip-rule="evenodd" d="M10.312 8.11022C7.27047 9.49989 5.04297 12.8072 5.04297 16.7507C5.04297 20.7786 6.69297 23.8842 9.0543 26.5462C11.0031 28.7389 13.3608 30.5576 15.6598 32.3286C16.2074 32.7502 16.7482 33.1707 17.2823 33.5899C18.2466 34.3507 19.1065 35.0162 19.937 35.5021C20.7675 35.9879 21.433 36.2079 22.0013 36.2079C22.5696 36.2079 23.237 35.9879 24.0656 35.5021C24.8961 35.0162 25.756 34.3507 26.7203 33.5899C27.2544 33.1694 27.7952 32.7496 28.3428 32.3304C30.6418 30.5557 32.9995 28.7389 34.9483 26.5462C37.3115 23.8842 38.9596 20.7786 38.9596 16.7507C38.9596 12.8091 36.7321 9.49989 33.6906 8.11022C30.7353 6.75906 26.7643 7.11656 22.9913 11.0381C22.863 11.1711 22.7093 11.277 22.5392 11.3493C22.3691 11.4216 22.1861 11.4588 22.0013 11.4588C21.8165 11.4588 21.6335 11.4216 21.4634 11.3493C21.2933 11.277 21.1396 11.1711 21.0113 11.0381C17.2383 7.11656 13.2673 6.75906 10.312 8.11022ZM22.0013 8.17622C17.7626 4.38122 13.0161 3.84956 9.16797 5.60772C5.10897 7.46856 2.29297 11.7806 2.29297 16.7526C2.29297 21.6384 4.32797 25.3674 6.99914 28.3741C9.1368 30.7812 11.753 32.7961 14.0648 34.5744C14.5904 34.9777 15.0951 35.3701 15.5791 35.7514C16.5196 36.4921 17.528 37.2804 18.5491 37.8781C19.5703 38.4757 20.7363 38.9597 22.0013 38.9597C23.2663 38.9597 24.4323 38.4739 25.4535 37.8781C26.4765 37.2804 27.483 36.4921 28.4235 35.7514C28.9075 35.3701 29.4122 34.9777 29.9378 34.5744C32.2478 32.7961 34.8658 30.7794 37.0035 28.3741C39.6746 25.3674 41.7096 21.6384 41.7096 16.7526C41.7096 11.7806 38.8955 7.46856 34.8346 5.61139C30.9865 3.85139 26.24 4.38306 22.0013 8.17622Z" fill="#166549"/>
</svg>
