<svg width="30" height="30" viewBox="0 0 30 30" fill="none" xmlns="http://www.w3.org/2000/svg">
<path fill-rule="evenodd" clip-rule="evenodd" d="M15 1.5625C7.57875 1.5625 1.5625 7.57875 1.5625 15C1.5625 17.32 2.15125 19.5062 3.1875 21.4125L2.20375 26.7038C2.17607 26.8533 2.18517 27.0073 2.23028 27.1525C2.27539 27.2977 2.35515 27.4298 2.46267 27.5373C2.5702 27.6449 2.70227 27.7246 2.84749 27.7697C2.99271 27.8148 3.14673 27.8239 3.29625 27.7962L8.5875 26.8112C10.5551 27.8817 12.76 28.4409 15 28.4375C22.4213 28.4375 28.4375 22.4212 28.4375 15C28.4375 7.57875 22.4213 1.5625 15 1.5625ZM21.25 13.4375C20.8356 13.4375 20.4382 13.6021 20.1451 13.8951C19.8521 14.1882 19.6875 14.5856 19.6875 15C19.6875 15.4144 19.8521 15.8118 20.1451 16.1049C20.4382 16.3979 20.8356 16.5625 21.25 16.5625C21.6644 16.5625 22.0618 16.3979 22.3549 16.1049C22.6479 15.8118 22.8125 15.4144 22.8125 15C22.8125 14.5856 22.6479 14.1882 22.3549 13.8951C22.0618 13.6021 21.6644 13.4375 21.25 13.4375ZM13.4375 15C13.4375 14.5856 13.6021 14.1882 13.8951 13.8951C14.1882 13.6021 14.5856 13.4375 15 13.4375C15.4144 13.4375 15.8118 13.6021 16.1049 13.8951C16.3979 14.1882 16.5625 14.5856 16.5625 15C16.5625 15.4144 16.3979 15.8118 16.1049 16.1049C15.8118 16.3979 15.4144 16.5625 15 16.5625C14.5856 16.5625 14.1882 16.3979 13.8951 16.1049C13.6021 15.8118 13.4375 15.4144 13.4375 15ZM8.75 13.4375C8.3356 13.4375 7.93817 13.6021 7.64515 13.8951C7.35212 14.1882 7.1875 14.5856 7.1875 15C7.1875 15.4144 7.35212 15.8118 7.64515 16.1049C7.93817 16.3979 8.3356 16.5625 8.75 16.5625C9.1644 16.5625 9.56183 16.3979 9.85486 16.1049C10.1479 15.8118 10.3125 15.4144 10.3125 15C10.3125 14.5856 10.1479 14.1882 9.85486 13.8951C9.56183 13.6021 9.1644 13.4375 8.75 13.4375Z" fill="#11573E"/>
</svg>
