<svg width="72" height="78" viewBox="0 0 72 78" fill="none" xmlns="http://www.w3.org/2000/svg">
<path d="M27.7194 3.27376C28.4173 3.62296 29.464 3.85577 29.9002 3.92852C30.5544 4.07402 32.2555 4.14677 33.8256 3.27376C35.7883 2.18251 39.4957 1.09125 41.2403 1.74601C42.9849 2.40076 46.6922 3.92851 48.873 2.61901C51.0538 1.3095 54.1069 0 56.2877 0C58.4685 0 60.2131 0.873003 61.5215 2.18251C62.83 3.49201 62.3939 5.45627 61.7396 7.85703C61.0854 10.2578 61.9577 12.222 62.3939 13.5316C62.83 14.8411 63.2662 17.4601 62.3939 20.5156C61.5215 23.5711 61.5215 24.8806 61.5215 26.6266C61.5215 28.3726 62.83 32.0829 62.83 33.3924C62.83 34.7019 61.9577 37.7574 61.5215 39.0669C61.1726 40.1145 61.3763 40.6674 61.5215 40.8129C62.7572 41.6859 65.7959 44.0867 68.0639 46.7057C70.8989 49.9794 71.7712 55.654 71.9893 58.9277C72.2074 62.2015 70.0266 63.2927 68.5 63.7292C66.9735 64.1657 66.3193 62.4197 66.1012 62.2015C65.8831 61.9832 65.665 62.4197 65.2289 62.638C64.7927 62.8562 64.5746 62.8562 64.1385 62.638C63.7023 62.4197 63.2662 60.2372 63.7023 59.3642C64.1385 58.4912 64.1385 56.9635 64.1385 54.5627C64.1385 52.1619 61.5215 49.9794 61.0854 49.3247C60.6492 48.6699 60.6492 50.6342 60.6492 51.9437C60.6492 53.2532 61.3035 55.654 61.9577 57.4C62.6119 59.146 61.7396 62.8562 61.5215 65.257C61.3035 67.6578 62.1758 70.0585 62.6119 72.6775C63.0481 75.2965 59.995 76.3878 58.0323 76.1695C56.0696 75.9513 55.1973 75.733 50.8357 77.0425C46.4742 78.3521 43.6392 76.606 41.6764 75.2965C39.7137 73.987 34.0437 75.2965 30.1183 77.0425C26.1929 78.7886 22.2675 77.6973 20.741 77.2608C19.2144 76.8243 19.2144 73.5505 19.4325 72.0228C19.6506 70.495 18.124 65.4753 18.124 63.9475C18.124 62.4197 18.9963 57.6182 19.6506 56.527C20.174 55.654 20.014 52.0891 19.8686 50.4159C18.124 50.1248 14.2422 49.281 12.672 48.2334C10.7093 46.9239 5.4755 42.7772 3.2947 39.5034C1.11392 36.2296 0.241605 32.7376 0.0235269 29.0274C-0.194551 25.3171 1.11392 24.2258 3.51277 23.5711C5.91161 22.9163 7.65624 25.9718 8.31047 26.6266C8.96471 27.2814 8.96471 25.0988 11.1455 25.5353C13.3263 25.9719 12.672 28.8091 12.0178 31.2099C11.3636 33.6106 12.0178 35.5749 12.672 37.1026C13.3263 38.6304 16.8155 42.3407 18.124 42.7772C19.4325 43.2137 19.2144 38.1939 19.8686 35.7931C20.5228 33.3924 19.4324 30.5551 18.3421 27.7179C17.2517 24.8806 17.4697 21.3886 18.3421 19.6426C19.2144 17.8966 18.3421 13.7498 18.124 13.0951C17.9059 12.4403 15.507 6.98403 17.4697 5.23802C19.4325 3.49201 21.6132 3.27376 23.5759 2.61901C25.5386 1.96426 26.8471 2.83726 27.7194 3.27376Z" fill="#D5D3D3"/>
<path d="M33.8078 32.0491C35.0191 32.1618 36.1276 30.8911 36.2837 29.2108C36.4398 27.5305 35.5844 26.077 34.373 25.9643C33.1617 25.8516 32.0532 27.1224 31.8971 28.8026C31.741 30.4829 32.5964 31.9364 33.8078 32.0491Z" fill="white"/>
<path d="M47.5773 33.1336C48.7887 33.2463 49.8972 31.9755 50.0533 30.2953C50.2094 28.615 49.3539 27.1615 48.1426 27.0488C46.9312 26.9361 45.8227 28.2069 45.6666 29.8871C45.5105 31.5674 46.366 33.0209 47.5773 33.1336Z" fill="white"/>
<path d="M40.7373 41.6856C37.4225 41.6856 34.9169 39.2849 34.0446 37.9754C33.8992 37.6844 33.7393 37.0151 34.2626 36.6659C34.9169 36.2294 36.0073 36.8841 36.2254 37.1024C36.4434 37.3206 37.97 38.8484 39.2784 39.0666C40.5869 39.2849 41.8954 39.5031 42.9858 39.0666C43.8581 38.7174 45.2394 37.6116 45.8208 37.1024C46.2596 36.8114 47.1624 36.3603 47.5362 37.7571C48.0037 39.5031 44.8809 41.6856 40.7373 41.6856Z" fill="white"/>
</svg>
