<svg width="50" height="50" viewBox="0 0 50 50" fill="none" xmlns="http://www.w3.org/2000/svg">
<path d="M19.2484 2.09857C19.733 2.32241 20.4599 2.47165 20.7627 2.51828C21.217 2.61155 22.3983 2.65818 23.4886 2.09857C24.8515 1.39905 27.4259 0.699522 28.6373 1.11924C29.8488 1.53895 32.4232 2.51828 33.9375 1.67885C35.4518 0.839426 37.5719 0 39.0862 0C40.6006 0 41.812 0.559618 42.7206 1.39904C43.6293 2.23847 43.3264 3.49761 42.8721 5.03656C42.4178 6.57551 43.0235 7.83464 43.3264 8.67407C43.6293 9.5135 43.9321 11.1923 43.3264 13.151C42.7207 15.1097 42.7206 15.9491 42.7206 17.0683C42.7206 18.1876 43.6293 20.5659 43.6293 21.4054C43.6293 22.2448 43.0235 24.2035 42.7206 25.0429C42.4784 25.7144 42.6198 26.0689 42.7206 26.1621C43.5787 26.7217 45.6888 28.2607 47.2637 29.9395C49.2323 32.0381 49.838 35.6756 49.9895 37.7742C50.1409 39.8727 48.6266 40.5723 47.5665 40.8521C46.5065 41.1319 46.0522 40.0127 45.9008 39.8727C45.7493 39.7328 45.5979 40.0127 45.295 40.1526C44.9922 40.2925 44.8407 40.2925 44.5379 40.1526C44.235 40.0127 43.9321 38.6136 44.235 38.054C44.5379 37.4944 44.5379 36.515 44.5379 34.9761C44.5379 33.4371 42.7206 32.0381 42.4178 31.6184C42.1149 31.1987 42.1149 32.4578 42.1149 33.2972C42.1149 34.1367 42.5692 35.6756 43.0235 36.7948C43.4778 37.9141 42.8721 40.2925 42.7206 41.8314C42.5692 43.3704 43.175 44.9093 43.4778 46.5882C43.7807 48.267 41.6606 48.9665 40.2977 48.8266C38.9348 48.6867 38.3291 48.5468 35.3004 49.3862C32.2717 50.2257 30.3031 49.1064 28.9402 48.267C27.5773 47.4276 23.64 48.267 20.9142 49.3862C18.1884 50.5055 15.4626 49.806 14.4026 49.5261C13.3425 49.2463 13.3425 47.1478 13.494 46.1684C13.6454 45.1891 12.5853 41.9713 12.5853 40.992C12.5853 40.0127 13.1911 36.9348 13.6454 36.2352C14.0088 35.6756 13.8978 33.3904 13.7968 32.3179C12.5853 32.1313 9.8898 31.5904 8.79948 30.9189C7.43657 30.0794 3.8022 27.4213 2.28785 25.3227C0.773511 23.2241 0.167771 20.9857 0.0163371 18.6073C-0.135096 16.2289 0.773505 15.5294 2.43928 15.1097C4.10503 14.69 5.3165 16.6486 5.7708 17.0683C6.22511 17.488 6.22511 16.089 7.73944 16.3688C9.25378 16.6486 8.79948 18.4674 8.34518 20.0063C7.89088 21.5453 8.34518 22.8044 8.79948 23.7837C9.25378 24.7631 11.6767 27.1414 12.5853 27.4213C13.4939 27.7011 13.3425 24.4833 13.7968 22.9443C14.2511 21.4054 13.4939 19.5866 12.7368 17.7679C11.9796 15.9491 12.131 13.7106 12.7368 12.5914C13.3425 11.4722 12.7368 8.81398 12.5853 8.39426C12.4339 7.97455 10.7681 4.47694 12.131 3.35771C13.4939 2.23847 15.0083 2.09857 16.3712 1.67885C17.7341 1.25914 18.6427 1.81876 19.2484 2.09857Z" fill="white"/>
<path d="M23.4763 20.544C24.3174 20.6163 25.0872 19.8017 25.1956 18.7246C25.3039 17.6475 24.7099 16.7158 23.8688 16.6435C23.0276 16.5713 22.2578 17.3859 22.1494 18.4629C22.0411 19.54 22.6351 20.4718 23.4763 20.544Z" fill="black"/>
<path d="M33.0368 21.2398C33.878 21.3121 34.6477 20.4975 34.7561 19.4204C34.8645 18.3433 34.2705 17.4116 33.4293 17.3393C32.5881 17.2671 31.8184 18.0817 31.71 19.1587C31.6016 20.2358 32.1956 21.1676 33.0368 21.2398Z" fill="black"/>
<path d="M28.2872 26.7216C25.9854 26.7216 24.2455 25.1826 23.6398 24.3432C23.5388 24.1567 23.4278 23.7276 23.7912 23.5038C24.2455 23.224 25.0027 23.6437 25.1541 23.7836C25.3055 23.9235 26.3656 24.9028 27.2742 25.0427C28.1828 25.1826 29.0914 25.3225 29.8486 25.0427C30.4543 24.8189 31.4135 24.1101 31.8172 23.7836C32.1219 23.5971 32.7488 23.3079 33.0084 24.2033C33.333 25.3225 31.1645 26.7216 28.2872 26.7216Z" fill="black"/>
</svg>
