<svg width="50" height="50" viewBox="0 0 50 50" fill="none" xmlns="http://www.w3.org/2000/svg">
<path d="M16.666 16.6667H33.3327M16.666 22.9167H33.3327M39.5827 33.3333H34.3223C34.0117 33.3336 33.7052 33.404 33.4256 33.5393C33.146 33.6745 32.9006 33.8712 32.7077 34.1146L26.6139 41.7187C26.4188 41.9628 26.1712 42.1599 25.8895 42.2953C25.6079 42.4307 25.2994 42.501 24.9868 42.501C24.6743 42.501 24.3658 42.4307 24.0842 42.2953C23.8025 42.1599 23.5549 41.9628 23.3598 41.7187L17.266 34.1146C17.0729 33.8709 16.8271 33.6741 16.5472 33.5388C16.2672 33.4035 15.9603 33.3333 15.6493 33.3333H10.416C6.95352 33.3333 4.16602 30.5458 4.16602 27.0833V12.5C4.16602 9.0375 6.95352 6.25 10.416 6.25H39.5827C43.0473 6.25 45.8327 9.0375 45.8327 12.5V27.0833C45.8327 30.5458 43.0473 33.3333 39.5827 33.3333Z" stroke="white" stroke-width="3.125" stroke-miterlimit="10" stroke-linecap="round" stroke-linejoin="round"/>
</svg>
