<svg width="34" height="34" viewBox="0 0 34 34" fill="none" xmlns="http://www.w3.org/2000/svg">
<path fill-rule="evenodd" clip-rule="evenodd" d="M18.5023 22.7515C18.1038 23.1495 17.5637 23.373 17.0006 23.373C16.4375 23.373 15.8974 23.1495 15.4989 22.7515L7.48342 14.7389C7.08497 14.3402 6.8612 13.7996 6.86133 13.236C6.86146 12.6724 7.08549 12.1319 7.48413 11.7334C7.88278 11.335 8.42338 11.1112 8.98701 11.1113C9.55064 11.1115 10.0911 11.3355 10.4896 11.7341L17.0006 18.2451L23.5116 11.7341C23.9122 11.3469 24.4489 11.1324 25.006 11.137C25.5632 11.1416 26.0963 11.3648 26.4905 11.7586C26.8847 12.1524 27.1084 12.6853 27.1135 13.2425C27.1186 13.7996 26.9047 14.3365 26.5178 14.7375L18.5037 22.753L18.5023 22.7515Z" fill="#166549"/>
</svg>
