<svg width="34" height="34" viewBox="0 0 34 34" fill="none" xmlns="http://www.w3.org/2000/svg">
<path fill-rule="evenodd" clip-rule="evenodd" d="M15.4977 11.2484C15.8962 10.8505 16.4363 10.627 16.9994 10.627C17.5625 10.627 18.1026 10.8505 18.5011 11.2484L26.5166 19.2611C26.915 19.6598 27.1388 20.2004 27.1387 20.764C27.1385 21.3276 26.9145 21.8681 26.5159 22.2666C26.1172 22.665 25.5766 22.8888 25.013 22.8887C24.4494 22.8885 23.9089 22.6645 23.5104 22.2659L16.9994 15.7549L10.4884 22.2659C10.0878 22.6531 9.55113 22.8676 8.99396 22.863C8.43678 22.8584 7.9037 22.6352 7.50952 22.2414C7.11534 21.8476 6.89161 21.3147 6.8865 20.7575C6.8814 20.2004 7.09534 19.6635 7.48224 19.2625L15.4963 11.247L15.4977 11.2484Z" fill="#166549"/>
</svg>
