<svg width="40" height="40" viewBox="0 0 40 40" fill="none" xmlns="http://www.w3.org/2000/svg">
<path d="M5 33.8167V8.33333C5 7.44928 5.35119 6.60143 5.97631 5.97631C6.60143 5.35119 7.44928 5 8.33333 5H31.6667C32.5507 5 33.3986 5.35119 34.0237 5.97631C34.6488 6.60143 35 7.44928 35 8.33333V25C35 25.8841 34.6488 26.7319 34.0237 27.357C33.3986 27.9821 32.5507 28.3333 31.6667 28.3333H13.2683C12.7687 28.3334 12.2755 28.4458 11.8252 28.6621C11.3749 28.8785 10.9789 29.1933 10.6667 29.5833L6.78167 34.44C6.65238 34.602 6.47593 34.7199 6.27673 34.7773C6.07753 34.8346 5.86543 34.8287 5.66977 34.7602C5.4741 34.6917 5.30455 34.5642 5.18456 34.3951C5.06457 34.2261 5.00008 34.024 5 33.8167Z" stroke="black" stroke-width="3"/>
</svg>
