<svg width="22" height="13" viewBox="0 0 22 13" fill="none" xmlns="http://www.w3.org/2000/svg">
<path fill-rule="evenodd" clip-rule="evenodd" d="M12.5023 11.7515C12.1038 12.1495 11.5637 12.373 11.0006 12.373C10.4375 12.373 9.89736 12.1495 9.49892 11.7515L1.48342 3.73888C1.08497 3.34024 0.861195 2.79964 0.861328 2.23601C0.861461 1.67237 1.08549 1.13188 1.48413 0.733425C1.88278 0.334971 2.42338 0.111195 2.98701 0.111328C3.55064 0.111461 4.09114 0.335491 4.48959 0.734133L11.0006 7.24513L17.5116 0.734133C17.9122 0.346854 18.4489 0.13241 19.006 0.136987C19.5632 0.141564 20.0963 0.364797 20.4905 0.758605C20.8847 1.15241 21.1084 1.68529 21.1135 2.24245C21.1186 2.79962 20.9047 3.33651 20.5178 3.73747L12.5037 11.753L12.5023 11.7515Z" fill="white"/>
</svg>
