<svg width="21" height="13" viewBox="0 0 21 13" fill="none" xmlns="http://www.w3.org/2000/svg">
<path fill-rule="evenodd" clip-rule="evenodd" d="M8.61102 0.732824C9.00946 0.334881 9.54956 0.11136 10.1127 0.11136C10.6758 0.11136 11.2159 0.334882 11.6144 0.732825L19.6299 8.74549C20.0283 9.14413 20.2521 9.68474 20.252 10.2484C20.2518 10.812 20.0278 11.3525 19.6291 11.7509C19.2305 12.1494 18.6899 12.3732 18.1263 12.373C17.5626 12.3729 17.0221 12.1489 16.6237 11.7502L10.1127 5.23924L3.60169 11.7502C3.20109 12.1375 2.66441 12.352 2.10724 12.3474C1.55007 12.3428 1.01698 12.1196 0.622801 11.7258C0.228622 11.332 0.00488588 10.7991 -0.000216639 10.2419C-0.00531916 9.68475 0.20862 9.14787 0.595521 8.74691L8.60961 0.731406L8.61102 0.732824Z" fill="white"/>
</svg>
