<svg width="34" height="36" viewBox="0 0 34 36" fill="none" xmlns="http://www.w3.org/2000/svg">
<path d="M19.9248 33.084C19.7782 33.2229 19.6224 33.3531 19.4561 33.4707C18.7381 33.9781 17.8801 34.2504 17.001 34.25H16.999C16.1198 34.2504 15.2619 33.9781 14.5439 33.4707C14.3776 33.3531 14.2218 33.2229 14.0752 33.084H19.9248ZM17 1.91699C20.072 1.91702 23.0182 3.13737 25.1904 5.30957C27.3626 7.48179 28.5829 10.428 28.583 13.5V19.9697C28.5835 20.4475 28.6955 20.9185 28.9092 21.3457V21.3467L32.0557 27.6406C32.1141 27.7575 32.1416 27.888 32.1357 28.0186C32.1298 28.1489 32.091 28.2757 32.0225 28.3867C31.9537 28.4979 31.8573 28.5897 31.7432 28.6533C31.6291 28.7169 31.5007 28.75 31.3701 28.75H2.62988C2.4993 28.75 2.37091 28.7169 2.25684 28.6533C2.14268 28.5897 2.04626 28.4979 1.97754 28.3867C1.90895 28.2757 1.8702 28.1489 1.86426 28.0186C1.85838 27.888 1.88588 27.7575 1.94434 27.6406L5.0918 21.3467L5.09277 21.3457C5.27941 20.9712 5.38726 20.563 5.41113 20.1465L5.41699 19.9668V13.5C5.41708 10.428 6.63735 7.48179 8.80957 5.30957C10.9818 3.1374 13.928 1.91699 17 1.91699Z" stroke="#166549" stroke-width="2.5"/>
</svg>
