<svg width="68" height="60" viewBox="0 0 68 60" fill="none" xmlns="http://www.w3.org/2000/svg">
<mask id="path-1-inside-1_131_90" fill="white">
<path d="M33.9993 5C32.4523 5 30.9685 5.61458 29.8746 6.70854C28.7806 7.80251 28.166 9.28624 28.166 10.8333C28.166 12.3804 28.7806 13.8642 29.8746 14.9581C30.9685 16.0521 32.4523 16.6667 33.9993 16.6667C35.5464 16.6667 37.0302 16.0521 38.1241 14.9581C39.2181 13.8642 39.8327 12.3804 39.8327 10.8333C39.8327 9.28624 39.2181 7.80251 38.1241 6.70854C37.0302 5.61458 35.5464 5 33.9993 5ZM23.166 10.8333C23.166 7.96015 24.3074 5.20465 26.339 3.17301C28.3707 1.14137 31.1262 0 33.9993 0C36.8725 0 39.628 1.14137 41.6597 3.17301C43.6913 5.20465 44.8327 7.96015 44.8327 10.8333C44.8327 13.7065 43.6913 16.462 41.6597 18.4937C39.628 20.5253 36.8725 21.6667 33.9993 21.6667C31.1262 21.6667 28.3707 20.5253 26.339 18.4937C24.3074 16.462 23.166 13.7065 23.166 10.8333ZM10.666 11.6667C9.33993 11.6667 8.06816 12.1934 7.13048 13.1311C6.1928 14.0688 5.66602 15.3406 5.66602 16.6667C5.66602 17.9927 6.1928 19.2645 7.13048 20.2022C8.06816 21.1399 9.33993 21.6667 10.666 21.6667C11.9921 21.6667 13.2639 21.1399 14.2015 20.2022C15.1392 19.2645 15.666 17.9927 15.666 16.6667C15.666 15.3406 15.1392 14.0688 14.2015 13.1311C13.2639 12.1934 11.9921 11.6667 10.666 11.6667ZM0.666016 16.6667C0.666016 14.0145 1.71958 11.471 3.59495 9.5956C5.47031 7.72023 8.01385 6.66667 10.666 6.66667C13.3182 6.66667 15.8617 7.72023 17.7371 9.5956C19.6124 11.471 20.666 14.0145 20.666 16.6667C20.666 19.3188 19.6124 21.8624 17.7371 23.7377C15.8617 25.6131 13.3182 26.6667 10.666 26.6667C8.01385 26.6667 5.47031 25.6131 3.59495 23.7377C1.71958 21.8624 0.666016 19.3188 0.666016 16.6667ZM52.3327 16.6667C52.3327 15.3406 52.8595 14.0688 53.7971 13.1311C54.7348 12.1934 56.0066 11.6667 57.3327 11.6667C58.6588 11.6667 59.9305 12.1934 60.8682 13.1311C61.8059 14.0688 62.3327 15.3406 62.3327 16.6667C62.3327 17.9927 61.8059 19.2645 60.8682 20.2022C59.9305 21.1399 58.6588 21.6667 57.3327 21.6667C56.0066 21.6667 54.7348 21.1399 53.7971 20.2022C52.8595 19.2645 52.3327 17.9927 52.3327 16.6667ZM57.3327 6.66667C54.6805 6.66667 52.137 7.72023 50.2616 9.5956C48.3862 11.471 47.3327 14.0145 47.3327 16.6667C47.3327 19.3188 48.3862 21.8624 50.2616 23.7377C52.137 25.6131 54.6805 26.6667 57.3327 26.6667C59.9848 26.6667 62.5284 25.6131 64.4038 23.7377C66.2791 21.8624 67.3327 19.3188 67.3327 16.6667C67.3327 14.0145 66.2791 11.471 64.4038 9.5956C62.5284 7.72023 59.9848 6.66667 57.3327 6.66667ZM18.9993 32.5C18.9993 29.28 21.6127 26.6667 24.8327 26.6667H43.166C46.386 26.6667 48.9993 29.28 48.9993 32.5V45C48.9993 48.9782 47.419 52.7935 44.6059 55.6066C41.7929 58.4196 37.9776 60 33.9993 60C30.0211 60 26.2058 58.4196 23.3927 55.6066C20.5797 52.7935 18.9993 48.9782 18.9993 45V32.5ZM24.8327 31.6667C24.6117 31.6667 24.3997 31.7545 24.2434 31.9107C24.0871 32.067 23.9993 32.279 23.9993 32.5V45C23.9993 47.6522 25.0529 50.1957 26.9283 52.0711C28.8036 53.9464 31.3472 55 33.9993 55C36.6515 55 39.1951 53.9464 41.0704 52.0711C42.9458 50.1957 43.9993 47.6522 43.9993 45V32.5C43.9993 32.279 43.9116 32.067 43.7553 31.9107C43.599 31.7545 43.387 31.6667 43.166 31.6667H24.8327ZM16.0327 29.9267C15.7905 30.7467 15.6682 31.6044 15.666 32.5V35.2L6.28602 37.7133C6.07253 37.7704 5.89045 37.9099 5.77981 38.1012C5.66917 38.2924 5.63903 38.5198 5.69602 38.7333L8.06935 47.59C8.67808 49.8619 10.0682 51.8465 11.9952 53.1951C13.9223 54.5436 16.263 55.1697 18.606 54.9633C19.656 56.5833 20.956 58.0267 22.4493 59.2367C20.5096 59.8798 18.4588 60.1198 16.423 59.942C14.3871 59.7641 12.4091 59.1721 10.6102 58.2023C8.81138 57.2325 7.22968 55.9053 5.96218 54.3022C4.69468 52.6992 3.76812 50.854 3.23935 48.88L0.866015 40.0267C0.465853 38.5326 0.675427 36.9408 1.44866 35.6013C2.22189 34.2617 3.49546 33.2841 4.98935 32.8833L16.0327 29.9267ZM45.5493 59.2367C45.8271 59.33 46.1082 59.4144 46.3927 59.49C50.2352 60.5193 54.3293 59.9801 57.7743 57.991C61.2192 56.0019 63.733 52.7258 64.7627 48.8833L67.136 40.03C67.3347 39.29 67.3856 38.5181 67.2858 37.7584C67.1861 36.9988 66.9377 36.2662 66.5548 35.6025C66.1719 34.9388 65.662 34.3571 65.0542 33.8906C64.4465 33.424 63.7527 33.0817 63.0127 32.8833L51.966 29.9233C52.2082 30.7456 52.3305 31.6044 52.3327 32.5V35.2L61.7193 37.7133C61.9322 37.7711 62.1135 37.9109 62.2235 38.1021C62.3334 38.2933 62.3631 38.5203 62.306 38.7333L59.9327 47.59C59.3239 49.8625 57.9333 51.8476 56.0055 53.1962C54.0777 54.5448 51.7362 55.1705 49.3927 54.9633C48.3442 56.581 47.0472 58.0231 45.5493 59.2367Z"/>
</mask>
<path d="M33.9993 5C32.4523 5 30.9685 5.61458 29.8746 6.70854C28.7806 7.80251 28.166 9.28624 28.166 10.8333C28.166 12.3804 28.7806 13.8642 29.8746 14.9581C30.9685 16.0521 32.4523 16.6667 33.9993 16.6667C35.5464 16.6667 37.0302 16.0521 38.1241 14.9581C39.2181 13.8642 39.8327 12.3804 39.8327 10.8333C39.8327 9.28624 39.2181 7.80251 38.1241 6.70854C37.0302 5.61458 35.5464 5 33.9993 5ZM23.166 10.8333C23.166 7.96015 24.3074 5.20465 26.339 3.17301C28.3707 1.14137 31.1262 0 33.9993 0C36.8725 0 39.628 1.14137 41.6597 3.17301C43.6913 5.20465 44.8327 7.96015 44.8327 10.8333C44.8327 13.7065 43.6913 16.462 41.6597 18.4937C39.628 20.5253 36.8725 21.6667 33.9993 21.6667C31.1262 21.6667 28.3707 20.5253 26.339 18.4937C24.3074 16.462 23.166 13.7065 23.166 10.8333ZM10.666 11.6667C9.33993 11.6667 8.06816 12.1934 7.13048 13.1311C6.1928 14.0688 5.66602 15.3406 5.66602 16.6667C5.66602 17.9927 6.1928 19.2645 7.13048 20.2022C8.06816 21.1399 9.33993 21.6667 10.666 21.6667C11.9921 21.6667 13.2639 21.1399 14.2015 20.2022C15.1392 19.2645 15.666 17.9927 15.666 16.6667C15.666 15.3406 15.1392 14.0688 14.2015 13.1311C13.2639 12.1934 11.9921 11.6667 10.666 11.6667ZM0.666016 16.6667C0.666016 14.0145 1.71958 11.471 3.59495 9.5956C5.47031 7.72023 8.01385 6.66667 10.666 6.66667C13.3182 6.66667 15.8617 7.72023 17.7371 9.5956C19.6124 11.471 20.666 14.0145 20.666 16.6667C20.666 19.3188 19.6124 21.8624 17.7371 23.7377C15.8617 25.6131 13.3182 26.6667 10.666 26.6667C8.01385 26.6667 5.47031 25.6131 3.59495 23.7377C1.71958 21.8624 0.666016 19.3188 0.666016 16.6667ZM52.3327 16.6667C52.3327 15.3406 52.8595 14.0688 53.7971 13.1311C54.7348 12.1934 56.0066 11.6667 57.3327 11.6667C58.6588 11.6667 59.9305 12.1934 60.8682 13.1311C61.8059 14.0688 62.3327 15.3406 62.3327 16.6667C62.3327 17.9927 61.8059 19.2645 60.8682 20.2022C59.9305 21.1399 58.6588 21.6667 57.3327 21.6667C56.0066 21.6667 54.7348 21.1399 53.7971 20.2022C52.8595 19.2645 52.3327 17.9927 52.3327 16.6667ZM57.3327 6.66667C54.6805 6.66667 52.137 7.72023 50.2616 9.5956C48.3862 11.471 47.3327 14.0145 47.3327 16.6667C47.3327 19.3188 48.3862 21.8624 50.2616 23.7377C52.137 25.6131 54.6805 26.6667 57.3327 26.6667C59.9848 26.6667 62.5284 25.6131 64.4038 23.7377C66.2791 21.8624 67.3327 19.3188 67.3327 16.6667C67.3327 14.0145 66.2791 11.471 64.4038 9.5956C62.5284 7.72023 59.9848 6.66667 57.3327 6.66667ZM18.9993 32.5C18.9993 29.28 21.6127 26.6667 24.8327 26.6667H43.166C46.386 26.6667 48.9993 29.28 48.9993 32.5V45C48.9993 48.9782 47.419 52.7935 44.6059 55.6066C41.7929 58.4196 37.9776 60 33.9993 60C30.0211 60 26.2058 58.4196 23.3927 55.6066C20.5797 52.7935 18.9993 48.9782 18.9993 45V32.5ZM24.8327 31.6667C24.6117 31.6667 24.3997 31.7545 24.2434 31.9107C24.0871 32.067 23.9993 32.279 23.9993 32.5V45C23.9993 47.6522 25.0529 50.1957 26.9283 52.0711C28.8036 53.9464 31.3472 55 33.9993 55C36.6515 55 39.1951 53.9464 41.0704 52.0711C42.9458 50.1957 43.9993 47.6522 43.9993 45V32.5C43.9993 32.279 43.9116 32.067 43.7553 31.9107C43.599 31.7545 43.387 31.6667 43.166 31.6667H24.8327ZM16.0327 29.9267C15.7905 30.7467 15.6682 31.6044 15.666 32.5V35.2L6.28602 37.7133C6.07253 37.7704 5.89045 37.9099 5.77981 38.1012C5.66917 38.2924 5.63903 38.5198 5.69602 38.7333L8.06935 47.59C8.67808 49.8619 10.0682 51.8465 11.9952 53.1951C13.9223 54.5436 16.263 55.1697 18.606 54.9633C19.656 56.5833 20.956 58.0267 22.4493 59.2367C20.5096 59.8798 18.4588 60.1198 16.423 59.942C14.3871 59.7641 12.4091 59.1721 10.6102 58.2023C8.81138 57.2325 7.22968 55.9053 5.96218 54.3022C4.69468 52.6992 3.76812 50.854 3.23935 48.88L0.866015 40.0267C0.465853 38.5326 0.675427 36.9408 1.44866 35.6013C2.22189 34.2617 3.49546 33.2841 4.98935 32.8833L16.0327 29.9267ZM45.5493 59.2367C45.8271 59.33 46.1082 59.4144 46.3927 59.49C50.2352 60.5193 54.3293 59.9801 57.7743 57.991C61.2192 56.0019 63.733 52.7258 64.7627 48.8833L67.136 40.03C67.3347 39.29 67.3856 38.5181 67.2858 37.7584C67.1861 36.9988 66.9377 36.2662 66.5548 35.6025C66.1719 34.9388 65.662 34.3571 65.0542 33.8906C64.4465 33.424 63.7527 33.0817 63.0127 32.8833L51.966 29.9233C52.2082 30.7456 52.3305 31.6044 52.3327 32.5V35.2L61.7193 37.7133C61.9322 37.7711 62.1135 37.9109 62.2235 38.1021C62.3334 38.2933 62.3631 38.5203 62.306 38.7333L59.9327 47.59C59.3239 49.8625 57.9333 51.8476 56.0055 53.1962C54.0777 54.5448 51.7362 55.1705 49.3927 54.9633C48.3442 56.581 47.0472 58.0231 45.5493 59.2367Z" fill="black" stroke="white" stroke-width="10" mask="url(#path-1-inside-1_131_90)"/>
</svg>
