<svg width="76" height="67" viewBox="0 0 76 67" fill="none" xmlns="http://www.w3.org/2000/svg">
<path d="M15.0006 64.3332H37.5006L57.5006 59.3332L69.634 54.1598C70.8001 53.5923 71.7111 52.6083 72.1872 51.402C72.6633 50.1957 72.6699 48.8547 72.2057 47.6438C71.7415 46.4328 70.8403 45.4399 69.6798 44.8609C68.5193 44.282 67.184 44.1591 65.9373 44.5165L45.0006 49.3332H43.7506M15.0006 64.3332V46.8332M15.0006 64.3332H3.33398V46.8332H15.0006M43.7506 49.3332C45.4083 49.3332 46.998 48.6747 48.1701 47.5026C49.3422 46.3305 50.0006 44.7408 50.0006 43.0832C50.0006 41.4256 49.3422 39.8359 48.1701 38.6638C46.998 37.4916 45.4083 36.8332 43.7506 36.8332H28.124C27.1386 36.831 26.1625 37.023 25.2514 37.3982C24.3403 37.7734 23.512 38.3244 22.814 39.0198L15.0006 46.8332M43.7506 49.3332H36.6673M56.6673 3.78984C58.4455 2.9474 60.408 2.5684 62.372 2.68812C64.3361 2.80783 66.238 3.42236 67.9007 4.47454C69.5635 5.52672 70.9331 6.98236 71.8821 8.70605C72.8312 10.4297 73.3289 12.3655 73.3289 14.3332C73.3289 16.3009 72.8312 18.2366 71.8821 19.9603C70.9331 21.684 69.5635 23.1396 67.9007 24.1918C66.238 25.244 64.3361 25.8585 62.372 25.9782C60.408 26.0979 58.4455 25.7189 56.6673 24.8765M48.334 25.9998C46.8019 25.9998 45.2848 25.6981 43.8693 25.1118C42.4539 24.5255 41.1678 23.6661 40.0844 22.5828C39.0011 21.4994 38.1417 20.2133 37.5554 18.7978C36.9691 17.3823 36.6673 15.8653 36.6673 14.3332C36.6673 12.8011 36.9691 11.284 37.5554 9.86853C38.1417 8.45307 39.0011 7.16694 40.0844 6.08359C41.1678 5.00024 42.4539 4.14088 43.8693 3.55458C45.2848 2.96827 46.8019 2.66651 48.334 2.66651C51.4282 2.66651 54.3956 3.89567 56.5836 6.08359C58.7715 8.27152 60.0006 11.239 60.0006 14.3332C60.0006 17.4274 58.7715 20.3948 56.5836 22.5828C54.3956 24.7707 51.4282 25.9998 48.334 25.9998Z" stroke="white" stroke-width="5" stroke-linecap="square"/>
</svg>
