<svg width="70" height="70" viewBox="0 0 70 70" fill="none" xmlns="http://www.w3.org/2000/svg">
<path d="M35.0007 0.833496C45.8984 0.833674 54.5595 9.74622 55.7039 20.8335H66.6668C67.3995 20.8335 68.0961 21.1545 68.5711 21.7124C69.046 22.2702 69.2522 23.0087 69.1355 23.7319L62.1355 67.0659C61.9397 68.2769 60.8935 69.1665 59.6668 69.1665H10.3337C9.10707 69.1665 8.0618 68.2768 7.86597 67.0659L0.865971 23.7319C0.749196 23.0087 0.955475 22.2702 1.43042 21.7124C1.90541 21.1547 2.60119 20.8335 3.33374 20.8335H14.2966C15.441 9.7461 24.1029 0.833496 35.0007 0.833496ZM12.4617 64.1665H57.5388L63.7312 25.8335H6.26929L12.4617 64.1665ZM35.0007 5.8335C27.1934 5.8335 20.4344 12.2018 19.3269 20.8335H50.6736C49.566 12.2019 42.8079 5.83367 35.0007 5.8335Z" fill="white"/>
<path d="M23.3333 41.6667C25.1743 41.6667 26.6667 40.1743 26.6667 38.3333C26.6667 36.4924 25.1743 35 23.3333 35C21.4924 35 20 36.4924 20 38.3333C20 40.1743 21.4924 41.6667 23.3333 41.6667Z" fill="white"/>
<path d="M42.9211 48.6116C43.6874 47.4643 45.2387 47.1547 46.3869 47.9202C47.5358 48.6861 47.8462 50.2382 47.0803 51.387L45.0002 50.0003C47.0492 51.3663 47.0795 51.3877 47.0793 51.3889L47.0774 51.3909C47.0764 51.3923 47.0755 51.3942 47.0744 51.3958C47.0724 51.3988 47.07 51.402 47.0676 51.4055C47.0625 51.413 47.0568 51.422 47.05 51.4319C47.0364 51.4517 47.0189 51.4762 46.9983 51.5052C46.9571 51.5631 46.9016 51.6387 46.8323 51.7298C46.6935 51.9119 46.4973 52.157 46.2434 52.4427C45.7373 53.012 44.9911 53.7571 44.0002 54.5003C42.0106 55.9925 38.9973 57.5003 35.0002 57.5003C31.0031 57.5003 27.9898 55.9925 26.0002 54.5003C25.0094 53.7571 24.2632 53.012 23.7571 52.4427C23.5031 52.157 23.3069 51.9119 23.1682 51.7298C23.0988 51.6387 23.0434 51.5631 23.0022 51.5052C22.9816 51.4762 22.964 51.4517 22.9504 51.4319C22.9436 51.422 22.9379 51.413 22.9328 51.4055C22.9304 51.402 22.928 51.3988 22.926 51.3958C22.925 51.3942 22.924 51.3923 22.9231 51.3909L22.9211 51.3889C22.9209 51.3877 22.9512 51.3663 25.0002 50.0003L22.9201 51.387C22.1543 50.2382 22.4647 48.6861 23.6135 47.9202C24.7617 47.1547 26.313 47.4643 27.0793 48.6116C27.0911 48.628 27.1128 48.6585 27.1448 48.7005C27.2143 48.7918 27.3309 48.9376 27.4934 49.1204C27.8206 49.4885 28.3246 49.9936 29.0002 50.5003C30.344 51.5081 32.3306 52.5003 35.0002 52.5003C37.6698 52.5003 39.6565 51.5081 41.0002 50.5003C41.6758 49.9936 42.1799 49.4885 42.5071 49.1204C42.6696 48.9375 42.7861 48.7918 42.8557 48.7005C42.8877 48.6585 42.9094 48.628 42.9211 48.6116ZM27.0725 48.6018C27.0734 48.6032 27.0751 48.6048 27.0764 48.6067C27.077 48.6076 27.0777 48.6086 27.0783 48.6096L27.0793 48.6116C27.0783 48.6102 27.0772 48.6089 27.0764 48.6077L27.0725 48.6018ZM42.9241 48.6077C42.9232 48.6089 42.9221 48.6102 42.9211 48.6116L42.9221 48.6096C42.9228 48.6086 42.9234 48.6076 42.9241 48.6067C42.9253 48.6048 42.927 48.6032 42.928 48.6018L42.9241 48.6077Z" fill="white"/>
<path d="M46.6673 41.6667C48.5083 41.6667 50.0007 40.1743 50.0007 38.3333C50.0007 36.4924 48.5083 35 46.6673 35C44.8264 35 43.334 36.4924 43.334 38.3333C43.334 40.1743 44.8264 41.6667 46.6673 41.6667Z" fill="white"/>
</svg>
