<svg width="338" height="367" viewBox="0 0 338 367" fill="none" xmlns="http://www.w3.org/2000/svg">
<path d="M130.119 15.3675C133.395 17.0068 138.309 18.0996 140.356 18.4411C143.427 19.1241 151.412 19.4656 158.783 15.3675C167.996 10.2451 185.399 5.12251 193.588 8.19602C201.778 11.2695 219.181 18.4411 229.417 12.294C239.654 6.14702 253.986 0 264.223 0C274.46 0 282.649 4.09801 288.792 10.245C294.934 16.392 292.886 25.6126 289.815 36.8821C286.744 48.1516 290.839 57.3722 292.886 63.5192C294.934 69.6662 296.981 81.9602 292.886 96.3033C288.792 110.646 288.792 116.793 288.792 124.989C288.792 133.185 294.934 150.602 294.934 156.749C294.934 162.896 290.839 177.239 288.792 183.386C287.154 188.304 288.11 190.899 288.792 191.582C294.592 195.68 308.856 206.95 319.502 219.244C332.81 234.611 336.905 261.248 337.929 276.616C338.952 291.983 328.716 297.106 321.55 299.155C314.384 301.204 311.313 293.008 310.289 291.983C309.265 290.959 308.242 293.008 306.194 294.032C304.147 295.057 303.123 295.057 301.076 294.032C299.029 293.008 296.981 282.763 299.029 278.665C301.076 274.567 301.076 267.395 301.076 256.126C301.076 244.856 288.792 234.611 286.744 231.538C284.697 228.464 284.697 237.685 284.697 243.832C284.697 249.979 287.768 261.248 290.839 269.444C293.91 277.64 289.815 295.057 288.792 306.326C287.768 317.596 291.863 328.865 293.91 341.159C295.957 353.454 281.626 358.576 272.413 357.552C263.199 356.527 259.105 355.503 238.631 361.65C218.157 367.797 204.849 359.601 195.636 353.454C186.422 347.307 159.806 353.454 141.38 361.65C122.954 369.846 104.527 364.723 97.3613 362.674C90.1954 360.625 90.1954 345.258 91.2191 338.086C92.2428 330.914 85.0768 307.351 85.0768 300.179C85.0768 293.008 89.1717 270.469 92.2428 265.346C94.6997 261.248 93.9489 244.514 93.2663 236.66C85.0768 235.294 66.855 231.333 59.4845 226.415C50.2712 220.268 25.7029 200.803 15.4659 185.435C5.22893 170.067 1.13413 153.675 0.110439 136.259C-0.913252 118.842 5.22889 113.72 16.4895 110.646C27.75 107.573 35.9396 121.916 39.0106 124.989C42.0817 128.063 42.0817 117.818 52.3186 119.867C62.5555 121.916 59.4845 135.234 56.4134 146.504C53.3423 157.773 56.4134 166.994 59.4845 174.166C62.5555 181.337 78.9346 198.754 85.0768 200.803C91.2189 202.852 90.1952 179.288 93.2663 168.018C96.3374 156.749 91.2189 143.43 86.1005 130.112C80.982 116.793 82.0057 100.401 86.1005 92.2053C90.1954 84.0092 86.1005 64.5437 85.0768 61.4702C84.0531 58.3967 72.7925 32.7841 82.0057 24.5881C91.2189 16.392 101.456 15.3675 110.669 12.294C119.882 9.22053 126.024 13.3185 130.119 15.3675Z" fill="#166449"/>
<path d="M158.693 150.447C164.38 150.976 169.583 145.011 170.316 137.123C171.049 129.236 167.033 122.413 161.347 121.884C155.66 121.355 150.457 127.32 149.724 135.207C148.991 143.095 153.007 149.918 158.693 150.447Z" fill="white"/>
<path d="M223.346 155.538C229.032 156.068 234.235 150.102 234.968 142.215C235.701 134.328 231.685 127.505 225.999 126.976C220.313 126.446 215.109 132.412 214.376 140.299C213.644 148.186 217.659 155.009 223.346 155.538Z" fill="white"/>
<path d="M191.217 195.681C175.657 195.681 163.895 184.411 159.8 178.264C159.118 176.898 158.367 173.756 160.824 172.117C163.895 170.068 169.014 173.141 170.037 174.166C171.061 175.19 178.227 182.362 184.369 183.387C190.511 184.411 196.653 185.436 201.772 183.387C205.867 181.747 212.351 176.557 215.08 174.166C217.139 172.8 221.378 170.683 223.132 177.24C225.327 185.436 210.668 195.681 191.217 195.681Z" fill="white"/>
</svg>
