<svg width="60" height="60" viewBox="0 0 60 60" fill="none" xmlns="http://www.w3.org/2000/svg">
<g clip-path="url(#clip0_131_117)">
<path fill-rule="evenodd" clip-rule="evenodd" d="M5 28.75C5 16.6075 16.64 7.5 30 7.5C43.36 7.5 55 16.6075 55 28.75C55 40.8925 43.36 50 30 50C28.6875 50 27.395 49.915 26.135 49.75L18.885 54.58C18.4736 54.854 17.9903 54.9999 17.496 54.9993C17.0017 54.9986 16.5187 54.8515 16.108 54.5765C15.6974 54.3014 15.3774 53.9108 15.1887 53.454C14.9999 52.9972 14.9508 52.4947 15.0475 52.01L16.16 46.4575C9.57 42.725 5 36.2925 5 28.75ZM25 17.5C25.663 17.5 26.2989 17.7634 26.7678 18.2322C27.2366 18.7011 27.5 19.337 27.5 20V37.5C27.5 38.163 27.2366 38.7989 26.7678 39.2678C26.2989 39.7366 25.663 40 25 40C24.337 40 23.7011 39.7366 23.2322 39.2678C22.7634 38.7989 22.5 38.163 22.5 37.5V20C22.5 19.337 22.7634 18.7011 23.2322 18.2322C23.7011 17.7634 24.337 17.5 25 17.5ZM27.5 31.25C27.5 30.6975 27.6825 30.145 28.05 29.6875L33.05 23.4375C33.4718 22.9436 34.0692 22.6331 34.7159 22.572C35.3625 22.5109 36.0076 22.7038 36.5145 23.11C37.0213 23.5161 37.3502 24.1036 37.4315 24.748C37.5128 25.3924 37.3401 26.0432 36.95 26.5625L33.2 31.25L36.95 35.9375C37.1675 36.1922 37.3315 36.4879 37.4325 36.8072C37.5335 37.1265 37.5692 37.4628 37.5377 37.7962C37.5062 38.1296 37.408 38.4533 37.249 38.748C37.09 39.0427 36.8734 39.3025 36.6121 39.5119C36.3507 39.7213 36.05 39.876 35.7277 39.967C35.4054 40.0579 35.0681 40.0832 34.7359 40.0413C34.4037 39.9993 34.0832 39.8911 33.7936 39.723C33.504 39.5548 33.2511 39.3302 33.05 39.0625L28.05 32.8125C27.6941 32.3695 27.5 31.8183 27.5 31.25Z" fill="#464646"/>
</g>
<defs>
<clipPath id="clip0_131_117">
<rect width="60" height="60" fill="white"/>
</clipPath>
</defs>
</svg>
