<svg width="50" height="50" viewBox="0 0 50 50" fill="none" xmlns="http://www.w3.org/2000/svg">
<path d="M25 27.083C28.4518 27.083 31.25 24.2848 31.25 20.833C31.25 17.3812 28.4518 14.583 25 14.583C21.5482 14.583 18.75 17.3812 18.75 20.833C18.75 24.2848 21.5482 27.083 25 27.083Z" stroke="white" stroke-width="4.16667" stroke-linecap="round" stroke-linejoin="round"/>
<path d="M25.0007 4.1665C20.5804 4.1665 16.3411 5.92245 13.2155 9.04806C10.0899 12.1737 8.33398 16.4129 8.33398 20.8332C8.33398 24.7748 9.17148 27.354 11.459 30.2082L25.0007 45.8332L38.5423 30.2082C40.8298 27.354 41.6673 24.7748 41.6673 20.8332C41.6673 16.4129 39.9114 12.1737 36.7858 9.04806C33.6602 5.92245 29.4209 4.1665 25.0007 4.1665Z" stroke="white" stroke-width="4.16667" stroke-linecap="round" stroke-linejoin="round"/>
</svg>
