<svg width="153" height="43" viewBox="0 0 153 43" fill="none" xmlns="http://www.w3.org/2000/svg">
<rect width="153" height="43" rx="13" fill="url(#paint0_linear_1443_882)"/>
<path d="M33.376 14.888H35.008V17.368C35.008 18.2213 34.944 19.0533 34.816 19.864C34.6987 20.664 34.5067 21.4213 34.24 22.136C33.9733 22.84 33.6267 23.48 33.2 24.056C32.784 24.6213 32.2827 25.0853 31.696 25.448L30.368 23.864C30.9227 23.5333 31.392 23.128 31.776 22.648C32.16 22.168 32.4693 21.64 32.704 21.064C32.9387 20.488 33.1093 19.8907 33.216 19.272C33.3227 18.6427 33.376 18.008 33.376 17.368V14.888ZM33.792 14.888H35.44V17.224C35.44 17.864 35.488 18.488 35.584 19.096C35.68 19.704 35.8293 20.2747 36.032 20.808C36.2453 21.3413 36.528 21.8267 36.88 22.264C37.232 22.6907 37.6693 23.0427 38.192 23.32L36.96 25.016C36.3627 24.6747 35.856 24.2373 35.44 23.704C35.0347 23.1707 34.7093 22.5627 34.464 21.88C34.2293 21.1973 34.0587 20.4613 33.952 19.672C33.8453 18.8827 33.792 18.0667 33.792 17.224V14.888ZM41.344 13.592H43.376V28.408H41.344V13.592ZM39.568 19.352H42.032V21.064H39.568V19.352ZM38.16 13.832H40.144V27.752H38.16V13.832ZM48.9838 20.92H62.4078V22.6H48.9838V20.92ZM54.8078 21.976H56.9358V25.096H54.8078V21.976ZM50.6318 14.216H60.6958V19.736H50.6318V14.216ZM58.5998 15.88H52.7278V18.056H58.5998V15.88ZM50.5358 26.456H60.9198V28.168H50.5358V26.456ZM50.5358 23.848H52.6638V27.032H50.5358V23.848ZM68.4865 14.584C69.2545 14.584 69.9478 14.7387 70.5665 15.048C71.1852 15.3573 71.6705 15.7893 72.0225 16.344C72.3745 16.888 72.5505 17.5173 72.5505 18.232C72.5505 18.936 72.3745 19.5653 72.0225 20.12C71.6705 20.6747 71.1852 21.1067 70.5665 21.416C69.9478 21.7253 69.2545 21.88 68.4865 21.88C67.7078 21.88 67.0092 21.7253 66.3905 21.416C65.7718 21.1067 65.2812 20.6747 64.9185 20.12C64.5665 19.5653 64.3905 18.936 64.3905 18.232C64.3905 17.5173 64.5665 16.888 64.9185 16.344C65.2812 15.7893 65.7718 15.3573 66.3905 15.048C67.0092 14.7387 67.7078 14.584 68.4865 14.584ZM68.4865 16.408C68.1025 16.408 67.7558 16.4827 67.4465 16.632C67.1478 16.7707 66.9078 16.9787 66.7265 17.256C66.5558 17.5227 66.4705 17.848 66.4705 18.232C66.4705 18.616 66.5558 18.9467 66.7265 19.224C66.9078 19.5013 67.1478 19.7147 67.4465 19.864C67.7558 20.0027 68.1025 20.072 68.4865 20.072C68.8598 20.072 69.1958 20.0027 69.4945 19.864C69.7932 19.7147 70.0278 19.5013 70.1985 19.224C70.3798 18.9467 70.4705 18.616 70.4705 18.232C70.4705 17.848 70.3798 17.5227 70.1985 17.256C70.0278 16.9787 69.7932 16.7707 69.4945 16.632C69.1958 16.4827 68.8598 16.408 68.4865 16.408ZM73.9425 13.576H76.0705V28.44H73.9425V13.576ZM64.0225 25.448L63.7825 23.72C64.6465 23.72 65.6012 23.7147 66.6465 23.704C67.7025 23.6827 68.7852 23.64 69.8945 23.576C71.0145 23.5013 72.0972 23.3893 73.1425 23.24L73.2865 24.776C72.2198 24.9893 71.1372 25.144 70.0385 25.24C68.9398 25.3253 67.8785 25.384 66.8545 25.416C65.8305 25.4373 64.8865 25.448 64.0225 25.448ZM87.9253 13.608H90.0533V28.424H87.9253V13.608ZM89.5733 19.384H92.1813V21.144H89.5733V19.384ZM78.3573 15.784H86.9973V17.48H78.3573V15.784ZM82.7093 18.328C83.4239 18.328 84.0639 18.4827 84.6293 18.792C85.1946 19.0907 85.6373 19.5013 85.9573 20.024C86.2879 20.5467 86.4533 21.1547 86.4533 21.848C86.4533 22.5413 86.2879 23.1547 85.9573 23.688C85.6373 24.2107 85.1946 24.6267 84.6293 24.936C84.0746 25.2347 83.4346 25.384 82.7093 25.384C81.9946 25.384 81.3493 25.2347 80.7733 24.936C80.2079 24.6267 79.7599 24.2107 79.4293 23.688C79.1093 23.1547 78.9493 22.5413 78.9493 21.848C78.9493 21.1547 79.1093 20.5467 79.4293 20.024C79.7599 19.5013 80.2079 19.0907 80.7733 18.792C81.3493 18.4827 81.9946 18.328 82.7093 18.328ZM82.7093 20.056C82.3679 20.056 82.0693 20.1253 81.8133 20.264C81.5573 20.4027 81.3546 20.6053 81.2053 20.872C81.0559 21.1387 80.9813 21.464 80.9813 21.848C80.9813 22.2213 81.0559 22.5467 81.2053 22.824C81.3546 23.0907 81.5573 23.2987 81.8133 23.448C82.0693 23.5867 82.3679 23.656 82.7093 23.656C83.0399 23.656 83.3333 23.5867 83.5893 23.448C83.8453 23.2987 84.0479 23.0907 84.1973 22.824C84.3466 22.5467 84.4213 22.2213 84.4213 21.848C84.4213 21.464 84.3466 21.1387 84.1973 20.872C84.0479 20.6053 83.8453 20.4027 83.5893 20.264C83.3333 20.1253 83.0399 20.056 82.7093 20.056ZM81.6213 13.848H83.7653V16.44H81.6213V13.848ZM103.364 13.592H105.492V28.408H103.364V13.592ZM98.996 15.128H101.092C101.092 16.2587 100.98 17.3413 100.756 18.376C100.543 19.4 100.18 20.3653 99.668 21.272C99.1667 22.1787 98.4733 23.0213 97.588 23.8C96.7133 24.568 95.62 25.272 94.308 25.912L93.188 24.232C94.6173 23.5387 95.7533 22.776 96.596 21.944C97.4493 21.1013 98.0627 20.152 98.436 19.096C98.8093 18.0293 98.996 16.8347 98.996 15.512V15.128ZM93.988 15.128H99.988V16.824H93.988V15.128Z" fill="white"/>
<path d="M124.333 16.0277C124.639 15.1813 123.819 14.361 122.972 14.6677L112.627 18.4092C111.778 18.7166 111.675 19.8754 112.456 20.328L115.758 22.2398L118.707 19.291C118.841 19.162 119.02 19.0906 119.205 19.0922C119.391 19.0938 119.569 19.1683 119.7 19.2997C119.832 19.431 119.906 19.6087 119.908 19.7944C119.909 19.9801 119.838 20.159 119.709 20.2926L116.76 23.2414L118.673 26.5437C119.124 27.325 120.283 27.2215 120.591 26.373L124.333 16.0277Z" fill="white"/>
<defs>
<linearGradient id="paint0_linear_1443_882" x1="0" y1="21.5" x2="153" y2="21.5" gradientUnits="userSpaceOnUse">
<stop stop-color="#0D523A"/>
<stop offset="0.591346" stop-color="#2E7B60"/>
<stop offset="0.995192" stop-color="#169669"/>
</linearGradient>
</defs>
</svg>
