<svg width="23" height="23" viewBox="0 0 23 23" fill="none" xmlns="http://www.w3.org/2000/svg">
<path fill-rule="evenodd" clip-rule="evenodd" d="M20.8449 11.5L21.4415 11.201V11.1982L21.4372 11.1939L21.4286 11.1766L21.3984 11.1191L21.2834 10.9121C21.143 10.67 20.9939 10.4332 20.8363 10.202C20.3104 9.42997 19.7058 8.71458 19.0322 8.06729C17.4136 6.51479 14.9224 4.93066 11.5012 4.93066C8.08281 4.93066 5.59018 6.51335 3.97156 8.06729C3.29803 8.71458 2.69344 9.42997 2.16749 10.202C1.95408 10.5169 1.75642 10.8421 1.57524 11.1766L1.56662 11.1939L1.56374 11.1982V11.1996C1.56374 11.1996 1.56231 11.201 2.15887 11.5L1.56231 11.1996C1.51618 11.2928 1.49219 11.3953 1.49219 11.4993C1.49219 11.6033 1.51618 11.7059 1.56231 11.799L1.56087 11.8019L1.56518 11.8062L1.57381 11.8235C1.61863 11.9133 1.66658 12.0015 1.71756 12.088C2.33654 13.1336 3.09374 14.091 3.96868 14.9342C5.58874 16.4867 8.07993 18.068 11.5012 18.068C14.921 18.068 17.4136 16.4867 19.0337 14.9328C19.706 14.2847 20.31 13.5694 20.8363 12.7981C21.0379 12.5013 21.2254 12.1953 21.3984 11.881L21.4286 11.8235L21.4372 11.8062L21.4401 11.8019V11.8005C21.4401 11.8005 21.4415 11.799 20.8449 11.5ZM20.8449 11.5L21.4415 11.8005C21.4876 11.7073 21.5116 11.6047 21.5116 11.5008C21.5116 11.3968 21.4876 11.2942 21.4415 11.201L20.8449 11.5ZM11.4149 9.29204C10.8293 9.29204 10.2677 9.52467 9.85364 9.93875C9.43956 10.3528 9.20693 10.9144 9.20693 11.5C9.20693 12.0856 9.43956 12.6472 9.85364 13.0613C10.2677 13.4754 10.8293 13.708 11.4149 13.708C12.0005 13.708 12.5621 13.4754 12.9762 13.0613C13.3903 12.6472 13.6229 12.0856 13.6229 11.5C13.6229 10.9144 13.3903 10.3528 12.9762 9.93875C12.5621 9.52467 12.0005 9.29204 11.4149 9.29204ZM7.87581 11.5C7.87581 10.5606 8.24898 9.65972 8.91323 8.99547C9.57749 8.33121 10.4784 7.95804 11.4178 7.95804C12.3572 7.95804 13.2581 8.33121 13.9224 8.99547C14.5866 9.65972 14.9598 10.5606 14.9598 11.5C14.9598 12.4394 14.5866 13.3404 13.9224 14.0046C13.2581 14.6689 12.3572 15.042 11.4178 15.042C10.4784 15.042 9.57749 14.6689 8.91323 14.0046C8.24898 13.3404 7.87581 12.4394 7.87581 11.5Z" fill="black"/>
</svg>
