<svg width="45" height="45" viewBox="0 0 45 45" fill="none" xmlns="http://www.w3.org/2000/svg">
<path d="M16.75 33C12.2083 33 8.365 31.4267 5.22 28.28C2.075 25.1333 0.501668 21.29 0.500001 16.75C0.498335 12.21 2.07167 8.36667 5.22 5.22C8.36833 2.07333 12.2117 0.5 16.75 0.5C21.2883 0.5 25.1325 2.07333 28.2825 5.22C31.4325 8.36667 33.005 12.21 33 16.75C33 18.5833 32.7083 20.3125 32.125 21.9375C31.5417 23.5625 30.75 25 29.75 26.25L43.75 40.25C44.2083 40.7083 44.4375 41.2917 44.4375 42C44.4375 42.7083 44.2083 43.2917 43.75 43.75C43.2917 44.2083 42.7083 44.4375 42 44.4375C41.2917 44.4375 40.7083 44.2083 40.25 43.75L26.25 29.75C25 30.75 23.5625 31.5417 21.9375 32.125C20.3125 32.7083 18.5833 33 16.75 33ZM16.75 28C19.875 28 22.5317 26.9067 24.72 24.72C26.9083 22.5333 28.0017 19.8767 28 16.75C27.9983 13.6233 26.905 10.9675 24.72 8.7825C22.535 6.5975 19.8783 5.50333 16.75 5.5C13.6217 5.49667 10.9658 6.59083 8.7825 8.7825C6.59917 10.9742 5.505 13.63 5.5 16.75C5.495 19.87 6.58917 22.5267 8.7825 24.72C10.9758 26.9133 13.6317 28.0067 16.75 28Z" fill="#166549"/>
</svg>
