<svg width="67" height="68" viewBox="0 0 67 68" fill="none" xmlns="http://www.w3.org/2000/svg">
<path d="M26.7201 45.0057C21.7217 45.0057 17.4919 43.2741 14.0306 39.811C10.5693 36.3479 8.83777 32.1181 8.83594 27.1215C8.8341 22.1249 10.5657 17.8951 14.0306 14.432C17.4956 10.9689 21.7254 9.2373 26.7201 9.2373C31.7149 9.2373 35.9456 10.9689 39.4124 14.432C42.8792 17.8951 44.6098 22.1249 44.6043 27.1215C44.6043 29.1392 44.2833 31.0423 43.6413 32.8307C42.9993 34.6191 42.128 36.2011 41.0275 37.5769L56.4354 52.9848C56.9398 53.4892 57.192 54.1312 57.192 54.9108C57.192 55.6903 56.9398 56.3323 56.4354 56.8367C55.9309 57.3412 55.289 57.5934 54.5094 57.5934C53.7298 57.5934 53.0878 57.3412 52.5834 56.8367L37.1755 41.4288C35.7998 42.5294 34.2177 43.4007 32.4293 44.0427C30.6409 44.6847 28.7378 45.0057 26.7201 45.0057ZM26.7201 39.5028C30.1594 39.5028 33.0832 38.2996 35.4916 35.893C37.9 33.4864 39.1033 30.5626 39.1015 27.1215C39.0996 23.6804 37.8964 20.7575 35.4916 18.3527C33.0869 15.948 30.1631 14.7438 26.7201 14.7401C23.2772 14.7365 20.3543 15.9407 17.9514 18.3527C15.5485 20.7648 14.3443 23.6877 14.3388 27.1215C14.3333 30.5553 15.5375 33.4791 17.9514 35.893C20.3653 38.3069 23.2882 39.5102 26.7201 39.5028Z" fill="#166549"/>
</svg>
