<svg width="31" height="30" viewBox="0 0 31 30" fill="none" xmlns="http://www.w3.org/2000/svg">
<mask id="path-1-inside-1_396_637" fill="white">
<path d="M26.375 3H23.375V1.5C23.375 1.10218 23.217 0.720644 22.9357 0.43934C22.6544 0.158035 22.2728 0 21.875 0C21.4772 0 21.0956 0.158035 20.8143 0.43934C20.533 0.720644 20.375 1.10218 20.375 1.5V3H11.375V1.5C11.375 1.10218 11.217 0.720644 10.9357 0.43934C10.6544 0.158035 10.2728 0 9.875 0C9.47718 0 9.09564 0.158035 8.81434 0.43934C8.53304 0.720644 8.375 1.10218 8.375 1.5V3H5.375C4.18153 3 3.03693 3.47411 2.19302 4.31802C1.34911 5.16193 0.875 6.30653 0.875 7.5V25.5C0.875 26.6935 1.34911 27.8381 2.19302 28.682C3.03693 29.5259 4.18153 30 5.375 30H26.375C27.5685 30 28.7131 29.5259 29.557 28.682C30.4009 27.8381 30.875 26.6935 30.875 25.5V7.5C30.875 6.30653 30.4009 5.16193 29.557 4.31802C28.7131 3.47411 27.5685 3 26.375 3ZM27.875 25.5C27.875 25.8978 27.717 26.2794 27.4357 26.5607C27.1544 26.842 26.7728 27 26.375 27H5.375C4.97718 27 4.59564 26.842 4.31434 26.5607C4.03304 26.2794 3.875 25.8978 3.875 25.5V15H27.875V25.5ZM27.875 12H3.875V7.5C3.875 7.10218 4.03304 6.72064 4.31434 6.43934C4.59564 6.15804 4.97718 6 5.375 6H8.375V7.5C8.375 7.89783 8.53304 8.27936 8.81434 8.56066C9.09564 8.84197 9.47718 9 9.875 9C10.2728 9 10.6544 8.84197 10.9357 8.56066C11.217 8.27936 11.375 7.89783 11.375 7.5V6H20.375V7.5C20.375 7.89783 20.533 8.27936 20.8143 8.56066C21.0956 8.84197 21.4772 9 21.875 9C22.2728 9 22.6544 8.84197 22.9357 8.56066C23.217 8.27936 23.375 7.89783 23.375 7.5V6H26.375C26.7728 6 27.1544 6.15804 27.4357 6.43934C27.717 6.72064 27.875 7.10218 27.875 7.5V12Z"/>
</mask>
<path d="M26.375 3H23.375V1.5C23.375 1.10218 23.217 0.720644 22.9357 0.43934C22.6544 0.158035 22.2728 0 21.875 0C21.4772 0 21.0956 0.158035 20.8143 0.43934C20.533 0.720644 20.375 1.10218 20.375 1.5V3H11.375V1.5C11.375 1.10218 11.217 0.720644 10.9357 0.43934C10.6544 0.158035 10.2728 0 9.875 0C9.47718 0 9.09564 0.158035 8.81434 0.43934C8.53304 0.720644 8.375 1.10218 8.375 1.5V3H5.375C4.18153 3 3.03693 3.47411 2.19302 4.31802C1.34911 5.16193 0.875 6.30653 0.875 7.5V25.5C0.875 26.6935 1.34911 27.8381 2.19302 28.682C3.03693 29.5259 4.18153 30 5.375 30H26.375C27.5685 30 28.7131 29.5259 29.557 28.682C30.4009 27.8381 30.875 26.6935 30.875 25.5V7.5C30.875 6.30653 30.4009 5.16193 29.557 4.31802C28.7131 3.47411 27.5685 3 26.375 3ZM27.875 25.5C27.875 25.8978 27.717 26.2794 27.4357 26.5607C27.1544 26.842 26.7728 27 26.375 27H5.375C4.97718 27 4.59564 26.842 4.31434 26.5607C4.03304 26.2794 3.875 25.8978 3.875 25.5V15H27.875V25.5ZM27.875 12H3.875V7.5C3.875 7.10218 4.03304 6.72064 4.31434 6.43934C4.59564 6.15804 4.97718 6 5.375 6H8.375V7.5C8.375 7.89783 8.53304 8.27936 8.81434 8.56066C9.09564 8.84197 9.47718 9 9.875 9C10.2728 9 10.6544 8.84197 10.9357 8.56066C11.217 8.27936 11.375 7.89783 11.375 7.5V6H20.375V7.5C20.375 7.89783 20.533 8.27936 20.8143 8.56066C21.0956 8.84197 21.4772 9 21.875 9C22.2728 9 22.6544 8.84197 22.9357 8.56066C23.217 8.27936 23.375 7.89783 23.375 7.5V6H26.375C26.7728 6 27.1544 6.15804 27.4357 6.43934C27.717 6.72064 27.875 7.10218 27.875 7.5V12Z" fill="black"/>
<path d="M26.375 3V1.19209e-07V3ZM23.375 3H20.375V6H23.375V3ZM21.875 0L21.875 -3L21.875 0ZM20.375 3V6H23.375V3H20.375ZM11.375 3H8.375V6H11.375V3ZM9.875 0L9.875 -3L9.875 0ZM8.375 3V6H11.375V3H8.375ZM0.875 7.5H-2.125H0.875ZM0.875 25.5L-2.125 25.5L0.875 25.5ZM5.375 30V33V30ZM26.375 30L26.375 33L26.375 30ZM30.875 25.5H33.875H30.875ZM30.875 7.5L33.875 7.5L30.875 7.5ZM3.875 15V12H0.875V15H3.875ZM27.875 15H30.875V12H27.875V15ZM27.875 12V15H30.875V12H27.875ZM3.875 12H0.875V15H3.875V12ZM5.375 6V9V6ZM8.375 6H11.375V3H8.375V6ZM11.375 6V3H8.375V6H11.375ZM20.375 6H23.375V3H20.375V6ZM23.375 6V3H20.375V6H23.375ZM26.375 3V1.19209e-07H23.375V3V6H26.375V3ZM23.375 3H26.375V1.5H23.375H20.375V3H23.375ZM23.375 1.5H26.375C26.375 0.306532 25.9009 -0.838063 25.057 -1.68198L22.9357 0.43934L20.8143 2.56066C20.533 2.27935 20.375 1.89782 20.375 1.5H23.375ZM22.9357 0.43934L25.057 -1.68198C24.2131 -2.5259 23.0685 -3 21.875 -3L21.875 0L21.875 3C21.4772 3 21.0956 2.84197 20.8143 2.56066L22.9357 0.43934ZM21.875 0L21.875 -3C20.6815 -3 19.5369 -2.52589 18.693 -1.68198L20.8143 0.43934L22.9357 2.56066C22.6544 2.84196 22.2728 3 21.875 3L21.875 0ZM20.8143 0.43934L18.693 -1.68198C17.8491 -0.838071 17.375 0.30652 17.375 1.5H20.375H23.375C23.375 1.89783 23.217 2.27936 22.9357 2.56066L20.8143 0.43934ZM20.375 1.5H17.375V3H20.375H23.375V1.5H20.375ZM20.375 3V1.19209e-07H11.375V3V6H20.375V3ZM11.375 3H14.375V1.5H11.375H8.375V3H11.375ZM11.375 1.5H14.375C14.375 0.306526 13.9009 -0.838067 13.057 -1.68198L10.9357 0.43934L8.81434 2.56066C8.53304 2.27936 8.375 1.89782 8.375 1.5H11.375ZM10.9357 0.43934L13.057 -1.68198C12.2131 -2.52589 11.0685 -3 9.875 -3L9.875 0L9.875 3C9.47718 3 9.09565 2.84196 8.81434 2.56066L10.9357 0.43934ZM9.875 0L9.875 -3C8.68153 -3 7.53693 -2.52589 6.69302 -1.68198L8.81434 0.43934L10.9357 2.56066C10.6544 2.84196 10.2728 3 9.875 3L9.875 0ZM8.81434 0.43934L6.69302 -1.68198C5.84911 -0.838067 5.375 0.306526 5.375 1.5H8.375H11.375C11.375 1.89782 11.217 2.27936 10.9357 2.56066L8.81434 0.43934ZM8.375 1.5H5.375V3H8.375H11.375V1.5H8.375ZM8.375 3V1.19209e-07H5.375V3V6H8.375V3ZM5.375 3V1.19209e-07C3.38588 1.19209e-07 1.47822 0.790176 0.0716993 2.1967L2.19302 4.31802L4.31434 6.43934C4.59564 6.15804 4.97718 6 5.375 6V3ZM2.19302 4.31802L0.0716993 2.1967C-1.33482 3.60322 -2.125 5.51088 -2.125 7.5L0.875 7.5L3.875 7.5C3.875 7.10218 4.03304 6.72064 4.31434 6.43934L2.19302 4.31802ZM0.875 7.5H-2.125V25.5H0.875H3.875V7.5H0.875ZM0.875 25.5L-2.125 25.5C-2.125 27.4891 -1.33482 29.3968 0.0716993 30.8033L2.19302 28.682L4.31434 26.5607C4.03304 26.2794 3.875 25.8978 3.875 25.5L0.875 25.5ZM2.19302 28.682L0.0716993 30.8033C1.47822 32.2098 3.38588 33 5.375 33L5.375 30L5.375 27C4.97717 27 4.59564 26.842 4.31434 26.5607L2.19302 28.682ZM5.375 30V33H26.375V30V27H5.375V30ZM26.375 30L26.375 33C28.3641 33 30.2718 32.2098 31.6783 30.8033L29.557 28.682L27.4357 26.5607C27.1544 26.842 26.7728 27 26.375 27L26.375 30ZM29.557 28.682L31.6783 30.8033C33.0848 29.3968 33.875 27.4891 33.875 25.5L30.875 25.5L27.875 25.5C27.875 25.8978 27.717 26.2794 27.4357 26.5607L29.557 28.682ZM30.875 25.5H33.875V7.5H30.875H27.875V25.5H30.875ZM30.875 7.5L33.875 7.5C33.875 5.51088 33.0848 3.60322 31.6783 2.1967L29.557 4.31802L27.4357 6.43934C27.717 6.72064 27.875 7.10217 27.875 7.5L30.875 7.5ZM29.557 4.31802L31.6783 2.1967C30.2718 0.790176 28.3641 1.19209e-07 26.375 1.19209e-07L26.375 3L26.375 6C26.7728 6 27.1544 6.15804 27.4357 6.43934L29.557 4.31802ZM27.875 25.5H24.875C24.875 25.1022 25.033 24.7207 25.3143 24.4393L27.4357 26.5607L29.557 28.682C30.4009 27.8381 30.875 26.6935 30.875 25.5H27.875ZM27.4357 26.5607L25.3143 24.4393C25.5957 24.158 25.9772 24 26.375 24V27V30C27.5685 30 28.7131 29.5259 29.557 28.682L27.4357 26.5607ZM26.375 27V24H5.375V27V30H26.375V27ZM5.375 27V24C5.77282 24 6.15435 24.158 6.43566 24.4393L4.31434 26.5607L2.19302 28.682C3.03694 29.5259 4.18153 30 5.375 30V27ZM4.31434 26.5607L6.43566 24.4393C6.71697 24.7206 6.875 25.1022 6.875 25.5H3.875H0.875C0.875 26.6935 1.34911 27.8381 2.19302 28.682L4.31434 26.5607ZM3.875 25.5H6.875V15H3.875H0.875V25.5H3.875ZM3.875 15V18H27.875V15V12H3.875V15ZM27.875 15H24.875V25.5H27.875H30.875V15H27.875ZM27.875 12V9H3.875V12V15H27.875V12ZM3.875 12H6.875V7.5H3.875H0.875V12H3.875ZM3.875 7.5H6.875C6.875 7.89783 6.71696 8.27936 6.43566 8.56066L4.31434 6.43934L2.19302 4.31802C1.34911 5.16193 0.875 6.30652 0.875 7.5H3.875ZM4.31434 6.43934L6.43566 8.56066C6.15436 8.84196 5.77283 9 5.375 9L5.375 6L5.375 3C4.18153 3 3.03693 3.47411 2.19302 4.31802L4.31434 6.43934ZM5.375 6V9H8.375V6V3H5.375V6ZM8.375 6H5.375V7.5H8.375H11.375V6H8.375ZM8.375 7.5H5.375C5.375 8.69347 5.84911 9.83807 6.69302 10.682L8.81434 8.56066L10.9357 6.43934C11.217 6.72064 11.375 7.10218 11.375 7.5H8.375ZM8.81434 8.56066L6.69302 10.682C7.53693 11.5259 8.68153 12 9.875 12V9V6C10.2728 6 10.6544 6.15804 10.9357 6.43934L8.81434 8.56066ZM9.875 9V12C11.0685 12 12.2131 11.5259 13.057 10.682L10.9357 8.56066L8.81434 6.43934C9.09564 6.15804 9.47718 6 9.875 6V9ZM10.9357 8.56066L13.057 10.682C13.9009 9.83807 14.375 8.69347 14.375 7.5H11.375H8.375C8.375 7.10218 8.53304 6.72064 8.81434 6.43934L10.9357 8.56066ZM11.375 7.5H14.375V6H11.375H8.375V7.5H11.375ZM11.375 6V9H20.375V6V3H11.375V6ZM20.375 6H17.375V7.5H20.375H23.375V6H20.375ZM20.375 7.5H17.375C17.375 8.69348 17.8491 9.83807 18.693 10.682L20.8143 8.56066L22.9357 6.43934C23.217 6.72064 23.375 7.10217 23.375 7.5H20.375ZM20.8143 8.56066L18.693 10.682C19.5369 11.5259 20.6815 12 21.875 12V9V6C22.2728 6 22.6544 6.15804 22.9357 6.43934L20.8143 8.56066ZM21.875 9V12C23.0685 12 24.2131 11.5259 25.057 10.682L22.9357 8.56066L20.8143 6.43934C21.0956 6.15803 21.4772 6 21.875 6V9ZM22.9357 8.56066L25.057 10.682C25.9009 9.83806 26.375 8.69347 26.375 7.5H23.375H20.375C20.375 7.10218 20.533 6.72065 20.8143 6.43934L22.9357 8.56066ZM23.375 7.5H26.375V6H23.375H20.375V7.5H23.375ZM23.375 6V9H26.375V6V3H23.375V6ZM26.375 6V9C25.9772 9 25.5956 8.84197 25.3143 8.56066L27.4357 6.43934L29.557 4.31802C28.7131 3.4741 27.5685 3 26.375 3V6ZM27.4357 6.43934L25.3143 8.56066C25.033 8.27935 24.875 7.89782 24.875 7.5H27.875H30.875C30.875 6.30653 30.4009 5.16194 29.557 4.31802L27.4357 6.43934ZM27.875 7.5H24.875V12H27.875H30.875V7.5H27.875Z" fill="black" mask="url(#path-1-inside-1_396_637)"/>
</svg>
