<svg width="44" height="44" viewBox="0 0 44 44" fill="none" xmlns="http://www.w3.org/2000/svg">
<path d="M4.58203 7.79199C4.58203 7.42732 4.7269 7.07758 4.98476 6.81972C5.24262 6.56186 5.59236 6.41699 5.95703 6.41699H6.98003C8.7217 6.41699 9.7667 7.58849 10.3625 8.67749C10.7604 9.40349 11.0482 10.245 11.2737 11.0077L11.457 11.0003H34.37C35.8917 11.0003 36.9917 12.456 36.5737 13.9208L33.2224 25.6707C32.9219 26.7246 32.2862 27.6519 31.4116 28.3121C30.5369 28.9724 29.4709 29.3297 28.375 29.33H17.4704C16.3658 29.33 15.2917 28.9673 14.4133 28.2976C13.5349 27.6279 12.9008 26.6882 12.6084 25.623L11.215 20.541L8.90503 12.753L8.9032 12.7383C8.6172 11.6988 8.34953 10.7253 7.94986 9.99933C7.5667 9.29349 7.2587 9.16699 6.98186 9.16699H5.95703C5.59236 9.16699 5.24262 9.02213 4.98476 8.76426C4.7269 8.5064 4.58203 8.15666 4.58203 7.79199ZM13.8825 19.8737L15.2594 24.8952C15.5344 25.8888 16.4382 26.58 17.4704 26.58H28.375C28.8732 26.58 29.3577 26.4177 29.7553 26.1176C30.153 25.8176 30.442 25.3962 30.5787 24.9172L33.7632 13.7503H12.0712L13.8569 19.7765L13.8825 19.8737ZM20.1654 34.8337C20.1654 35.8061 19.7791 36.7387 19.0914 37.4264C18.4038 38.114 17.4712 38.5003 16.4987 38.5003C15.5262 38.5003 14.5936 38.114 13.906 37.4264C13.2183 36.7387 12.832 35.8061 12.832 34.8337C12.832 33.8612 13.2183 32.9286 13.906 32.2409C14.5936 31.5533 15.5262 31.167 16.4987 31.167C17.4712 31.167 18.4038 31.5533 19.0914 32.2409C19.7791 32.9286 20.1654 33.8612 20.1654 34.8337ZM17.4154 34.8337C17.4154 34.5905 17.3188 34.3574 17.1469 34.1855C16.975 34.0136 16.7418 33.917 16.4987 33.917C16.2556 33.917 16.0224 34.0136 15.8505 34.1855C15.6786 34.3574 15.582 34.5905 15.582 34.8337C15.582 35.0768 15.6786 35.3099 15.8505 35.4818C16.0224 35.6537 16.2556 35.7503 16.4987 35.7503C16.7418 35.7503 16.975 35.6537 17.1469 35.4818C17.3188 35.3099 17.4154 35.0768 17.4154 34.8337ZM32.9987 34.8337C32.9987 35.8061 32.6124 36.7387 31.9248 37.4264C31.2371 38.114 30.3045 38.5003 29.332 38.5003C28.3596 38.5003 27.4269 38.114 26.7393 37.4264C26.0517 36.7387 25.6654 35.8061 25.6654 34.8337C25.6654 33.8612 26.0517 32.9286 26.7393 32.2409C27.4269 31.5533 28.3596 31.167 29.332 31.167C30.3045 31.167 31.2371 31.5533 31.9248 32.2409C32.6124 32.9286 32.9987 33.8612 32.9987 34.8337ZM30.2487 34.8337C30.2487 34.5905 30.1521 34.3574 29.9802 34.1855C29.8083 34.0136 29.5751 33.917 29.332 33.917C29.0889 33.917 28.8558 34.0136 28.6838 34.1855C28.5119 34.3574 28.4154 34.5905 28.4154 34.8337C28.4154 35.0768 28.5119 35.3099 28.6838 35.4818C28.8558 35.6537 29.0889 35.7503 29.332 35.7503C29.5751 35.7503 29.8083 35.6537 29.9802 35.4818C30.1521 35.3099 30.2487 35.0768 30.2487 34.8337Z" fill="#166549"/>
</svg>
